<?xml version="1.0" encoding="utf-8"?>
<svg xmlns="http://www.w3.org/2000/svg" version="1.1" x="0" y="0" viewBox="0 0 150 150" xml:space="preserve">
    <title>NYIT Logo</title>
    <style type="text/css">
    .st0{fill:#F7A800;}
        .st1{fill:#407CCA;}
    </style>
    <g>
    <rect y="0" class="st0" width="150.1" height="150"/>
    <path class="st1" d="M86.9 57.4h-5.6l-9.2 13.4 -9.2-13.4H48.4v21.4l-9.9-21.4H24.6c1.3 1.3 2.2 2.7 2.2 5.1l0 24.8c0 2.5-0.9 3.9-2.2 5.1h11.1V70.9L46 92.5h13.4c-1.3-1.3-2.1-2.7-2.1-5.1l0-21.3 10.2 13.4 0 7.9c0 2.5-0.8 3.9-2.1 5.1h13.2c-1.3-1.3-2.1-2.7-2.1-5.1v-7.9L86.9 66V57.4zM86.9 66v21.3c0 2.5-0.8 3.9-2.1 5.1h13.6c-1.3-1.3-2.1-2.7-2.1-5.1V66H86.9zM96.3 66h10.2v21.3c0 2.5-0.8 3.9-2.1 5.1h13.2c-1.3-1.3-2.1-2.7-2.1-5.1V66h4.8c2.5 0 3.9 0.8 5.1 2.1V57.4H96.3V66z">
    </path>
    </g>
</svg>